<svg xmlns="http://www.w3.org/2000/svg" viewBox="0 0 32 32">
  <rect width="32" height="32" rx="7" fill="#0E7490"/>
  <!-- Tooth outline -->
  <path d="M14.5 6C12.5 6 11 6.7 10.2 7.8c-.9 1.2-1 2.8-.6 4.6.4 1.5.8 3 1.3 4.5.4 1.4.8 2.8 1.2 4 .2.8.5 1.1.9 1.1s.7-.3.8-1c.2-.8.3-1.8.5-2.9.2-.9.5-1.4 1-1.4s.8.5 1 1.4c.2 1.1.4 2.1.5 2.9.2.7.4 1 .8 1 .4 0 .7-.3.9-1.1.3-1.2.7-2.6 1.2-4 .4-1.5.9-3 1.3-4.5.4-1.8.3-3.4-.6-4.6C18 6.7 16.5 6 14.5 6z" fill="white"/>
  <!-- Cursor arrow -->
  <path d="M20 10l5.5 5.5-2.2.8-1.5 2.7-1.5-2.8-2.2.7L20 10z" fill="white" opacity="0.9"/>
  <path d="M20.5 10.8l3.8 3.8-1.5.5-1.2 2.1-1.1-2-1.5.5 1.5-4.9z" fill="#0E7490"/>
  <path d="M20.8 11.5l2.8 2.8-1.1.4-.9 1.5-.8-1.5-1.1.4 1.1-3.6z" fill="white"/>
</svg>
